<?xml version="1.0" encoding="UTF-8"?>
<svg id="Layer_1" data-name="Layer 1" xmlns="http://www.w3.org/2000/svg" viewBox="0 0 512 362.3">
  <defs>
    <style>
      .cls-1 {
        fill: #fff;
        fill-rule: evenodd;
      }
    </style>
  </defs>
  <path class="cls-1" d="M447.12,0c44.95,0,64.88,26.35,64.88,62.33v105.9c0,34.96-19.41,61.31-63.35,61.31h-1.05c-11.43.04-18.2,12.72-11.81,22.12l75.18,110.64h-91.16l-87.01-124.01c-3.85-5.48-10.16-8.75-16.89-8.75-11.37,0-20.58,9.14-20.58,20.41v112.35h-78.68v-112.35c0-11.27-9.21-20.41-20.58-20.41-6.74,0-13.04,3.27-16.89,8.75l-87.01,124.01H1.02l75.19-110.64c6.39-9.4-.37-22.08-11.81-22.12h-1.05c-43.93,0-63.35-26.35-63.35-61.32V62.33C0,26.35,19.92,0,64.88,0h382.24ZM87.87,70.94c-7.15,0-9.19,2.53-9.19,9.63v69.42c0,6.59,2.04,8.61,8.69,8.61h337.28c6.64,0,8.68-2.03,8.68-8.61v-69.42c0-7.09-2.04-9.63-9.19-9.63H87.87Z"/>
</svg>